<?xml version="1.0" encoding="iso-8859-1"?>
<!-- Generator: Adobe Illustrator 19.0.0, SVG Export Plug-In . SVG Version: 6.00 Build 0)  -->
<svg version="1.1" id="Capa_1" xmlns="http://www.w3.org/2000/svg" xmlns:xlink="http://www.w3.org/1999/xlink" x="0px" y="0px"
	 viewBox="0 0 512 512" style="enable-background:new 0 0 512 512;" xml:space="preserve">
<circle style="fill:#FEDA44;" cx="256" cy="256" r="248.5"/>
<path style="fill:#FF9911;" d="M55.077,256c0-129.217,98.63-235.384,224.711-247.361C271.958,7.895,264.026,7.5,256,7.5
	C118.757,7.5,7.5,118.757,7.5,256S118.757,504.5,256,504.5c8.026,0,15.958-0.395,23.789-1.139
	C153.707,491.384,55.077,385.217,55.077,256z"/>
<path style="fill:#FFFFFF;" d="M442.447,250.505c1.646,2.631,2.483,5.683,2.638,8.783c0.818,16.355,7.193,33.217,3.181,48.228
	c-4.43,16.575-20.159,28.48-28.555,42.992c-8.517,14.721-11.05,34.258-22.997,46.205c-11.947,11.947-31.484,14.48-46.205,22.997
	c-14.512,8.396-26.418,24.125-42.993,28.555c-15.011,4.012-31.873-2.363-48.227-3.181c-3.1-0.155-6.153-0.991-8.784-2.638
	c-9.878-6.183-0.505-14.273-0.505-31.25c0-19.402,12-19.402,12-38.803c0-19.399-12-19.399-12-38.798c0-19.399,12-19.399,12-38.799
	c0-19.399-2.645-25.153,2.5-30.298c5.146-5.145,10.901-2.5,30.303-2.5s19.402-12,38.803-12c19.399,0,19.399,12,38.798,12
	c19.399,0,19.399-12,38.799-12C428.177,250,436.266,240.629,442.447,250.505z"/>
<path style="fill:#E0E0E2;" d="M291.065,445.085c-3.1-0.155-6.153-0.991-8.784-2.638c-9.878-6.183-0.505-14.273-0.505-31.25
	c0-19.401,12-19.401,12-38.803c0-19.399-12-19.399-12-38.798c0-19.399,12-19.399,12-38.799c0-19.399-2.645-25.153,2.5-30.297
	c5.146-5.145,10.901-2.5,30.303-2.5c11.998,0,16.579-4.588,22.914-8.09c-3.909-2.161-8.484-3.91-15.887-3.91
	c-19.402,0-19.402,12-38.803,12s-25.157-2.645-30.303,2.5c-5.145,5.144-2.5,10.899-2.5,30.297c0,19.399-12,19.399-12,38.799
	c0,19.399,12,19.399,12,38.798c0,19.402-12,19.402-12,38.803c0,16.977-9.373,25.067,0.505,31.25
	c2.631,1.647,5.684,2.483,8.784,2.638c16.355,0.818,33.216,7.193,48.227,3.181c0.784-0.21,1.555-0.452,2.319-0.71
	C303.591,446.513,297.292,445.396,291.065,445.085z"/>
<path style="fill:#FF5023;" d="M282.264,448.239c-7.609-1.182-15.347-2.772-22.975-3.154c-3.1-0.155-6.153-0.991-8.784-2.638
	c-9.878-6.183-0.505-14.273-0.505-31.25c0-19.402,12-19.402,12-38.803c0-19.399-12-19.399-12-38.798c0-19.399,12-19.399,12-38.799
	c0-19.399-2.521-25.276,2.5-30.298c5.125-5.125,10.901-2.5,30.303-2.5s19.402-12,38.803-12c19.399,0,19.399,12,38.798,12
	c19.399,0,19.399-12,38.799-12c16.974,0,25.063-9.371,31.244,0.505c1.646,2.631,2.483,5.683,2.638,8.783
	c0.382,7.626,1.971,15.362,3.153,22.97C449.4,273.671,450,264.906,450,256c0-107.143-86.857-194-194-194S62,148.857,62,256
	s86.857,194,194,194c8.908,0,17.675-0.6,26.264-1.763V448.239z"/>
<path style="fill:#D80029;" d="M97.291,256c0-101.194,77.483-184.276,176.354-193.193C267.832,62.283,261.95,62,256,62
	C148.857,62,62,148.857,62,256s86.857,194,194,194c5.966,0,11.867-0.275,17.696-0.803C174.8,440.305,97.291,357.211,97.291,256z"/>
<g>
	<rect x="151.04" y="218.5" style="fill:#C3FB3A;" width="32.981" height="32.981"/>
	<rect x="184.02" y="334.5" style="fill:#C3FB3A;" width="32.981" height="32.981"/>
	<rect x="283.79" y="181.67" style="fill:#C3FB3A;" width="32.981" height="32.981"/>
</g>
<g>
	<circle style="fill:#FEDA44;" cx="211.48" cy="158.72" r="19.751"/>
	<circle style="fill:#FEDA44;" cx="316.77" cy="131.88" r="19.751"/>
	<circle style="fill:#FEDA44;" cx="125.77" cy="304.08" r="19.751"/>
</g>
<rect x="313.486" y="288.348" transform="matrix(0.0505 0.9987 -0.9987 0.0505 600.2451 -39.6691)" width="15" height="15"/>
<rect x="277.807" y="335.879" transform="matrix(-0.9987 0.0505 -0.0505 -0.9987 587.5906 671.9114)" width="15" height="15"/>
<rect x="203.988" y="276.827" transform="matrix(-0.0504 -0.9987 0.9987 -0.0504 -61.8174 509.8762)" width="15" height="15"/>
<rect x="216.981" y="207.154" transform="matrix(0.0504 0.9987 -0.9987 0.0504 427.5472 -20.3607)" width="15" height="15"/>
<rect x="248.501" y="98.869" transform="matrix(-0.0504 -0.9987 0.9987 -0.0504 162.6699 367.4052)" width="15" height="15"/>
<rect x="95.202" y="227.107" transform="matrix(-0.9987 0.0504 -0.0504 -0.9987 217.0976 463.7384)" width="15" height="15"/>
<rect x="353.988" y="335.538" transform="matrix(0.0505 0.9987 -0.9987 0.0505 685.8325 -35.3134)" width="15" height="15"/>
<rect x="334.007" y="386.64" transform="matrix(0.0504 0.9987 -0.9987 0.0504 717.933 33.2021)" width="15" height="15"/>
<rect x="414.182" y="296.212" transform="matrix(0.0504 0.9987 -0.9987 0.0504 703.7543 -132.7419)" width="15" height="15"/>
<rect x="285.282" y="385.884" transform="matrix(0.0504 0.9987 -0.9987 0.0504 670.9097 81.1472)" width="15" height="15"/>
<path d="M437.02,74.98C388.668,26.629,324.38,0,256,0S123.332,26.629,74.98,74.98C26.629,123.333,0,187.62,0,256
	s26.629,132.667,74.98,181.02C123.332,485.371,187.62,512,256,512s132.668-26.629,181.02-74.98C485.371,388.667,512,324.38,512,256
	S485.371,123.333,437.02,74.98z M417.981,434.297l-12.479-12.479l-10.607,10.606l11.634,11.634C365.254,477.163,312.904,497,256,497
	C123.112,497,15,388.888,15,256S123.112,15,256,15s241,108.112,241,241C497,326.586,466.497,390.181,417.981,434.297z"/>
<g>
	<path style="fill:#FFFFFF;" d="M232.363,103.295l-2.275-14.826c-34.025,5.222-65.301,20.532-90.443,44.276l10.299,10.905
		C172.861,122.008,201.362,108.053,232.363,103.295z"/>
	<path style="fill:#FFFFFF;" d="M140.622,153.244l-11.197-9.98c-9.456,10.61-17.552,22.371-24.063,34.958l13.322,6.893
		C124.619,173.64,132.001,162.917,140.622,153.244z"/>
	<path style="fill:#FFFFFF;" d="M407.491,225.502l14.709-2.943c-4.922-24.592-15.522-48.226-30.655-68.348l-11.988,9.016
		C393.349,181.564,403.008,203.099,407.491,225.502z"/>
	<path style="fill:#FFFFFF;" d="M371.379,153.245l11.197-9.98c-3.796-4.259-7.854-8.375-12.062-12.233l-10.139,11.056
		C364.215,145.606,367.916,149.361,371.379,153.245z"/>
</g>
<path d="M256,470.5c-79.144,0-151.599-43.352-189.089-113.138l-13.214,7.099C93.806,439.121,171.324,485.5,256,485.5
	c3.119,0,6.275-0.063,9.382-0.188l-0.602-14.988C261.873,470.441,258.919,470.5,256,470.5z"/>
<g>
	<path style="fill:#FFFFFF;" d="M433.871,136.076l12.43-8.397c-32.892-48.686-82.402-82.607-139.411-95.515l-3.313,14.63
		C356.852,58.856,403.124,90.564,433.871,136.076z"/>
	<path style="fill:#FFFFFF;" d="M291.126,29.172C279.586,27.399,267.769,26.5,256,26.5v15c11.008,0,22.06,0.841,32.849,2.499
		L291.126,29.172z"/>
</g>
<path d="M457.5,256c0-111.107-90.393-201.5-201.5-201.5c-99.683,0-182.677,72.764-198.694,167.965H32v15h23.361
	C54.801,243.571,54.5,249.75,54.5,256c0,111.107,90.393,201.5,201.5,201.5c8.752,0,17.551-0.573,26.176-1.692
	c4.788,0.72,9.62,1.274,14.45,1.274c4.289,0,8.577-0.435,12.826-1.57c11.785-3.15,20.961-10.77,29.835-18.14
	c5.112-4.245,9.94-8.255,14.978-11.169c5.175-2.994,11.151-5.224,17.479-7.585c10.726-4.002,21.816-8.141,30.275-16.6
	c8.458-8.458,12.597-19.549,16.599-30.274c2.361-6.327,4.592-12.303,7.586-17.478c2.914-5.037,6.924-9.866,11.169-14.978
	c7.369-8.874,14.99-18.05,18.139-29.834c2.416-9.035,1.658-18.239,0.299-27.283C456.927,273.548,457.5,264.751,457.5,256z M69.5,256
	c0-102.836,83.663-186.5,186.5-186.5c97.417,0,177.615,75.081,185.799,170.414c-5.522-2.613-11.613-0.99-16.469,0.304
	c-4.018,1.07-8.57,2.282-14.126,2.282c-11.832,0-18.216,3.949-23.345,7.122c-4.578,2.832-7.887,4.878-15.454,4.878
	s-10.876-2.046-15.454-4.878c-5.129-3.173-11.513-7.122-23.344-7.122c-11.832,0-18.217,3.949-23.347,7.122
	c-4.579,2.832-7.888,4.878-15.457,4.878c-5.666,0-10.186-0.236-13.817-0.426c-9.193-0.482-15.836-0.829-21.789,5.123
	c-5.951,5.951-5.604,12.594-5.122,21.787c0.189,3.631,0.426,8.149,0.426,13.814c0,7.567-2.046,10.875-4.878,15.454
	c-3.173,5.129-7.122,11.513-7.122,23.345s3.949,18.215,7.122,23.344c2.832,4.579,4.878,7.886,4.878,15.454
	c0,7.569-2.046,10.877-4.879,15.456c-3.173,5.13-7.121,11.514-7.121,23.347c0,5.557-1.213,10.111-2.283,14.129
	c-1.293,4.857-2.916,10.95-0.302,16.473C144.581,433.615,69.5,353.417,69.5,256z M441.02,305.58
	c-2.3,8.606-8.56,16.144-15.187,24.124c-4.457,5.366-9.064,10.915-12.614,17.049c-3.623,6.264-6.182,13.118-8.654,19.746
	c-3.601,9.647-7.001,18.76-13.153,24.912c-6.152,6.152-15.265,9.553-24.912,13.153c-6.628,2.474-13.482,5.031-19.746,8.655
	c-6.134,3.549-11.683,8.157-17.049,12.613c-7.98,6.627-15.519,12.888-24.125,15.188c-8.157,2.181-17.648,0.587-27.697-1.099
	c-5.913-0.992-12.027-2.018-18.219-2.328c-1.973-0.099-3.764-0.619-5.179-1.505c-0.632-0.396-0.904-0.666-0.998-0.772
	c-0.148-0.973,0.644-3.945,1.226-6.131c1.177-4.418,2.788-10.47,2.788-17.989c0-7.569,2.046-10.877,4.879-15.456
	c3.173-5.13,7.121-11.514,7.121-23.347c0-11.832-3.949-18.215-7.122-23.344c-2.832-4.579-4.878-7.886-4.878-15.454
	s2.046-10.875,4.878-15.454c3.173-5.129,7.122-11.513,7.122-23.345c0-6.057-0.248-10.792-0.446-14.597
	c-0.417-7.968-0.319-9.329,0.749-10.396c1.069-1.07,2.43-1.169,10.399-0.75c3.806,0.199,8.542,0.447,14.601,0.447
	c11.833,0,18.218-3.949,23.348-7.122c4.579-2.832,7.888-4.878,15.456-4.878c7.566,0,10.875,2.046,15.453,4.878
	c5.129,3.173,11.513,7.122,23.345,7.122s18.216-3.949,23.345-7.122c4.578-2.832,7.887-4.878,15.454-4.878
	c7.519,0,13.568-1.611,17.986-2.788c2.185-0.582,5.15-1.375,6.129-1.225c0.106,0.094,0.376,0.366,0.771,0.997
	c0.886,1.415,1.405,3.206,1.505,5.179c0.31,6.191,1.335,12.305,2.327,18.217C441.607,287.93,443.2,297.423,441.02,305.58z"/>
<path d="M143.538,258.976h47.981v-47.981h-47.981V258.976z M158.538,225.995h17.981v17.981h-17.981V225.995z"/>
<path d="M176.52,374.981h47.98V327h-47.98V374.981z M191.52,342h17.98v17.981h-17.98V342z"/>
<path d="M324.272,174.17h-47.981v47.981h47.981V174.17z M309.272,207.151h-17.981V189.17h17.981V207.151z"/>
<path d="M211.477,131.468c-15.026,0-27.251,12.225-27.251,27.25s12.225,27.25,27.251,27.25c15.025,0,27.25-12.225,27.25-27.25
	S226.502,131.468,211.477,131.468z M211.477,170.969c-6.755,0-12.251-5.496-12.251-12.25s5.496-12.25,12.251-12.25
	s12.25,5.496,12.25,12.25S218.231,170.969,211.477,170.969z"/>
<path d="M316.772,159.128c15.025,0,27.25-12.225,27.25-27.251c0-15.026-12.225-27.25-27.25-27.25
	c-15.026,0-27.251,12.225-27.251,27.25C289.521,146.904,301.746,159.128,316.772,159.128z M316.772,119.627
	c6.755,0,12.25,5.496,12.25,12.25c0,6.755-5.495,12.251-12.25,12.251s-12.251-5.496-12.251-12.251
	C304.521,125.123,310.018,119.627,316.772,119.627z"/>
<path d="M125.77,276.827c-15.025,0-27.25,12.225-27.25,27.251s12.225,27.25,27.25,27.25c15.026,0,27.251-12.225,27.251-27.25
	C153.021,289.051,140.796,276.827,125.77,276.827z M125.77,316.328c-6.755,0-12.25-5.496-12.25-12.25
	c0-6.755,5.495-12.251,12.25-12.251s12.251,5.496,12.251,12.251S132.524,316.328,125.77,316.328z"/>
<g>
</g>
<g>
</g>
<g>
</g>
<g>
</g>
<g>
</g>
<g>
</g>
<g>
</g>
<g>
</g>
<g>
</g>
<g>
</g>
<g>
</g>
<g>
</g>
<g>
</g>
<g>
</g>
<g>
</g>
</svg>
