<?xml version="1.0" encoding="iso-8859-1"?>
<!-- Generator: Adobe Illustrator 19.0.0, SVG Export Plug-In . SVG Version: 6.00 Build 0)  -->
<svg version="1.1" id="Capa_1" xmlns="http://www.w3.org/2000/svg" xmlns:xlink="http://www.w3.org/1999/xlink" x="0px" y="0px"
	 viewBox="0 0 512 512" style="enable-background:new 0 0 512 512;" xml:space="preserve">
<ellipse style="fill:#B0BEC5;" cx="256" cy="315.095" rx="248.485" ry="126.247"/>
<path style="fill:#90A4AE;" d="M256,441.345c-72.085,0-136.989-15.6-182.378-40.512C89.3,442.676,164.987,474.41,256,474.41
	s166.7-31.734,182.378-73.577C392.989,425.745,328.085,441.345,256,441.345z"/>
<path style="fill:#FF9017;" d="M256,401.267c-127.22,0-208.407-51.035-208.407-86.168S128.78,228.931,256,228.931
	s208.407,51.035,208.407,86.168S383.22,401.267,256,401.267z"/>
<path style="fill:#90A4AE;" d="M296.02,230.673c101.016,8.962,164.673,50.657,168.217,81.721
	c9.686-18.343,12.422-39.416,8.235-59.309c-40.324-36.256-114.904-61.368-201.417-63.995
	C276.296,204.234,284.649,218.446,296.02,230.673z"/>
<path style="fill:#FF7043;" d="M296.02,230.673c0.97,1.043,1.951,2.078,2.964,3.091l2.125,2.126l-73.559,73.56l96.407,27.99
	l21.038,11.293c12.736,6.837,27.101,10.452,41.539,10.453c0.001,0,0.002,0,0.003,0c23.481,0,45.554-9.141,62.151-25.738
	c6.367-6.367,11.547-13.478,15.546-21.054C460.693,281.33,397.036,239.635,296.02,230.673z"/>
<path style="fill:#FF5352;" d="M434.521,223.352L303.235,92.066l-5.469,9.414c-22.253,38.305-15.936,86.79,15.388,118.114l0,0
	l73.623,38.174c10.839,7.807,12.104,23.466,2.657,32.911l0,0c-3.942,3.941-9.249,6.213-14.822,6.342l-21.784,0.507L310.32,255.02
	l-44.635,44.635l65.89,19.129l22.9,12.294c26.364,14.153,58.887,9.359,80.045-11.8l0,0
	C461.009,292.788,461.009,249.841,434.521,223.352z"/>
<path style="fill:#FFFFFF;" d="M206.904,165.807c-52.045,0-95.003,38.903-101.382,89.215c13.394-6.448,28.41-10.061,44.27-10.061
	c56.443,0,102.2,45.756,102.2,102.2c0,4.399-0.279,8.732-0.818,12.984c34.274-16.498,57.929-51.556,57.929-92.139
	C309.104,211.564,263.347,165.807,206.904,165.807z"/>
<path style="fill:#D8D7DA;" d="M206.904,195.866c-31.958,0-59.113,20.897-68.562,49.738c3.759-0.419,7.579-0.642,11.45-0.642
	c49.179,0,90.239,34.739,99.995,81.015c17.737-13.156,29.257-34.24,29.257-57.97C279.045,228.228,246.683,195.866,206.904,195.866z"
	/>
<g>
	<path style="fill:#FFFFFF;" d="M238.284,296.008c6.65-7.445,10.702-17.256,10.702-28c0-23.204-18.878-42.082-42.082-42.082
		c-15.575,0-29.192,8.513-36.468,21.123C199.41,252.992,223.912,271.199,238.284,296.008z"/>
	<path style="fill:#FFFFFF;" d="M251.992,347.167c0,19.708-5.581,38.104-15.24,53.705c-104.234-4.308-173.779-43.154-186.895-75.167
		c4.479-20.971,15.39-39.557,30.58-53.595c15.56-14.398,35.6-23.997,57.793-26.482c3.797-0.441,7.655-0.661,11.563-0.661
		C206.233,244.967,251.992,290.716,251.992,347.167z"/>
</g>
<path style="fill:#D8D7DA;" d="M221.933,347.167c0,19.779-8.006,37.724-20.931,50.769c-54.196-6.783-96.428-23.055-122.73-41.301
	c-0.411-3.096-0.621-6.262-0.621-9.469c0-39.788,32.363-72.141,72.141-72.141S221.933,307.379,221.933,347.167z"/>
<g>
	<path style="fill:#FFFFFF;" d="M191.875,347.167c0,21.813-16.703,39.828-37.994,41.882c-11.262-2.916-21.742-6.242-31.391-9.889
		c-9.038-7.725-14.779-19.208-14.779-31.992c0-23.205,18.877-42.082,42.082-42.082S191.875,323.961,191.875,347.167z"/>
	<path style="fill:#FFFFFF;" d="M378.86,382.936c-33.075,11.012-74.666,18.336-122.86,18.336c-5.22,0-10.37-0.09-15.44-0.261
		c4.569-35.419,34.918-62.863,71.55-62.863C342.208,338.149,368.069,356.675,378.86,382.936z"/>
</g>
<path style="fill:#D8D7DA;" d="M349.573,391.132c-23.265,5.38-49.587,8.968-78.513,9.889c4.228-18.767,21.031-32.814,41.05-32.814
	C328.421,368.208,342.599,377.536,349.573,391.132z"/>
<circle style="fill:#9CCC65;" cx="110.215" cy="289.385" r="70.638"/>
<path style="fill:#D4E157;" d="M110.215,329.963c-22.376,0-40.579-18.204-40.579-40.579s18.204-40.579,40.579-40.579
	s40.579,18.204,40.579,40.579S132.591,329.963,110.215,329.963z"/>
<path d="M512,315.104c0-33.654-23.433-65.593-66.003-90.071c-1.902-2.433-3.946-4.776-6.163-6.995L308.549,86.753l0,0L251.87,30.074
	l-10.627,10.628l32.424,32.424c-0.849-0.174-1.704-0.343-2.576-0.5c-28.006-5.046-53.852,1.654-74.741,19.379l9.724,11.46
	c17.472-14.826,38.287-20.254,61.867-16.134c10.465,1.829,19.242,5.226,24.827,7.791l-1.501,2.583
	c-16.944,29.166-18.46,63.891-5.959,93.646c-19.932-20.381-47.714-33.054-78.405-33.054c-34.623,0-66.822,16.295-87.389,43.386
	c-13.233,4.318-25.523,9.192-36.786,14.551c-5.93,2.235-11.518,5.17-16.664,8.706C23.901,249.125,0,280.934,0,315.104
	c0,34.351,23.935,66.412,67.672,91.036c9.23,21.315,32.537,40.456,66.049,54.132c34.219,13.964,77.646,21.654,122.279,21.654
	s88.06-7.691,122.279-21.654c33.512-13.676,56.819-32.817,66.049-54.132C488.065,381.516,512,349.455,512,315.104z M456.892,315.104
	c0,16.015-25.532,41.119-74.02,58.646c-13.611-26.402-40.675-43.115-70.763-43.115c-5.589,0-11.055,0.604-16.347,1.718
	c1.227-1.694,2.422-3.417,3.556-5.185c1.773-2.765,3.401-5.608,4.911-8.504l24.475,7.108l22.217,11.927
	c11.06,5.938,23.158,8.976,35.501,8.976c3.693-0.001,7.408-0.273,11.124-0.82c16.134-2.379,30.757-9.731,42.289-21.263
	c5.861-5.861,10.619-12.528,14.211-19.739C455.919,308.489,456.892,311.943,456.892,315.104z M353.293,382.673
	c-9.157-13.685-24.459-21.98-41.183-21.98c-20.976,0-39.749,13.555-46.709,32.963c-3.102,0.061-6.228,0.101-9.4,0.101
	c-2.136,0-4.252-0.02-6.356-0.048c0.277-1.043,0.574-2.077,0.901-3.098c1.025-2.375,1.962-4.783,2.814-7.222
	c10.3-22.411,32.986-37.726,58.751-37.726c23.598,0,44.908,12.678,56.279,32.881C363.549,380.003,358.511,381.38,353.293,382.673z
	 M336.972,386.291c-16.626,3.264-34.906,5.616-54.776,6.733c6.078-10.422,17.438-17.302,29.913-17.302
	C321.67,375.722,330.559,379.624,336.972,386.291z M89.048,229.923c6.621-2.365,13.744-3.662,21.167-3.662
	c34.806,0,63.123,28.317,63.123,63.123s-28.317,63.123-63.123,63.123s-63.123-28.317-63.123-63.123
	c0-21.17,10.486-39.926,26.527-51.383C78.511,235.193,83.66,232.498,89.048,229.923z M238.319,282.386
	c-1.677-2.29-3.43-4.533-5.291-6.699c-13.27-15.438-30.517-26.795-49.638-32.952c6.321-5.866,14.701-9.29,23.514-9.29
	c19.06,0,34.568,15.507,34.568,34.568C241.472,273.018,240.375,277.91,238.319,282.386z M247.246,296.802
	c5.993-8.374,9.255-18.413,9.255-28.79c0-27.347-22.249-49.597-49.597-49.597c-15.124,0-29.355,7.002-38.697,18.64
	c-3.371-3.731-7.093-7.138-11.118-10.165c12.229-14.833,30.363-23.505,49.814-23.505c35.635,0,64.626,28.992,64.626,64.626
	c0,16.535-6.472,32.454-17.705,44.371C252.037,307.03,249.84,301.822,247.246,296.802z M178.314,327.66
	c3.903,5.684,6.046,12.442,6.046,19.506c0,17.187-13.068,31.991-29.97,34.252c-16.763-4.417-30.329-9.423-40.746-13.969
	C141.396,366.244,165.425,350.5,178.314,327.66z M199.389,347.167c0-13.214-5.206-25.68-14.433-34.946
	c1.667-5.448,2.738-11.149,3.173-17.026c16.271,12.064,26.289,31.351,26.289,51.973c0,15.912-5.759,30.981-16.279,42.829
	c-6.535-0.878-12.765-1.884-18.711-2.986C191.625,377.959,199.389,363.464,199.389,347.167z M187.37,276.961
	c-1.066-6.644-2.978-13.005-5.612-18.983c37.184,13.171,62.719,48.339,62.719,89.188c0,10.511-1.744,20.865-5.102,30.677
	c-1.089,2.432-2.068,4.924-2.914,7.481c-1.173,2.663-2.469,5.277-3.891,7.83c-5.829-0.299-11.467-0.708-16.938-1.204
	c8.973-13.121,13.815-28.594,13.815-44.783C229.448,317.873,213.059,290.764,187.37,276.961z M316.549,271.877l25.652,25.652
	l-12.796,12.796l-19.122-5.552C314.024,294.249,316.155,283.173,316.549,271.877z M446.873,271.315
	c0,9.713-2.295,19.067-6.603,27.468l-37.282-19.207c0.314-2.154,0.394-4.355,0.214-6.57c-0.212-2.637-0.781-5.2-1.663-7.633
	l41.625-14.942C445.594,257.03,446.873,264.073,446.873,271.315z M394.749,295.995c0.819-0.819,1.577-1.682,2.285-2.579
	l34.683,17.867c-0.81,0.913-1.639,1.812-2.51,2.682c-11.015,11.015-25.288,17.042-39.947,17.681l-2.313-30.068
	C389.805,300.175,392.441,298.301,394.749,295.995z M372.105,304.597l1.983,25.776c-5.49-1.179-10.893-3.144-16.059-5.918
	l-13.989-7.51l11.974-11.974L372.105,304.597z M436.148,236.983l-43.68,15.68c-0.422-0.342-0.855-0.672-1.298-0.992l-0.446-0.322
	l-21.138-10.959l35.672-35.672l23.949,23.949C431.793,231.253,434.102,234.042,436.148,236.983z M323.862,216.682l46.681-46.68
	l24.088,24.088l-39.042,39.042L323.862,216.682z M304.263,105.255l0.564-0.97l55.088,55.088l-47.812,47.811
	C288.848,178.41,285.36,137.795,304.263,105.255z M307.84,224.909l0.823,0.822l74.116,38.429c3.146,2.437,5.122,6.074,5.444,10.056
	c0.335,4.146-1.16,8.21-4.101,11.151c-2.587,2.587-6.026,4.059-9.683,4.144l-18.569,0.433l-40.896-40.895
	c-1.478-8.448-3.926-16.563-7.224-24.233C307.78,224.845,307.809,224.878,307.84,224.909z M206.904,173.327
	c52.209,0,94.685,42.476,94.685,94.685c0,31.676-16.167,61.316-42.091,78.735c-0.023-5.952-0.542-11.854-1.513-17.661
	c17.973-15.074,28.575-37.565,28.575-61.073c0-43.923-35.734-79.656-79.656-79.656c-24.705,0-47.684,11.339-62.748,30.639
	c-4.678-2.265-9.617-4.072-14.756-5.374C147.015,188.536,175.829,173.327,206.904,173.327z M256,466.896
	c-68.771,0-131.093-19.206-160.348-47.178c45.222,18.88,101.285,29.147,160.348,29.147s115.125-10.267,160.348-29.147
	C387.093,447.69,324.771,466.896,256,466.896z M428.303,397.671c-45.9,23.321-107.091,36.165-172.303,36.165
	s-126.404-12.844-172.303-36.165c-44.281-22.499-68.668-51.822-68.668-82.567c0-16.028,6.856-32.024,19.953-46.828
	c-1.888,6.719-2.92,13.793-2.92,21.108c0,15.02,4.268,29.058,11.643,40.981c8.422,18.23,31.605,36.713,63.688,50.756
	c25.235,11.046,68.106,24.739,129.035,27.256v0.001c0.044,0.002,0.089,0.003,0.132,0.005l4.268,0.177l0.011-0.017
	c4.932,0.16,10.01,0.243,15.16,0.243c58.341,0,113.433-10.879,155.128-30.634c38.067-18.036,60.794-41.606,60.794-63.049
	c0-8.937-4.044-18.511-11.713-27.876c1.107-5.173,1.693-10.497,1.693-15.912c0-6.629-0.868-13.122-2.516-19.365
	c24.414,18.935,37.584,40.814,37.584,63.153C496.971,345.849,472.584,375.172,428.303,397.671z"/>
<path d="M110.215,337.478c26.519,0,48.094-21.574,48.094-48.094s-21.575-48.094-48.094-48.094s-48.094,21.574-48.094,48.094
	S83.696,337.478,110.215,337.478z M77.151,289.384c0-5.746,1.476-11.154,4.065-15.867l17.871,17.871l-16.355,16.355
	C79.21,302.486,77.151,296.172,77.151,289.384z M93.712,318.017l16.002-16.001l16.368,16.368
	c-4.713,2.589-10.121,4.065-15.867,4.065C104.207,322.448,98.574,320.829,93.712,318.017z M138.849,272.881
	c2.813,4.861,4.431,10.494,4.431,16.502c0,7.046-2.222,13.579-5.993,18.949l-16.945-16.945L138.849,272.881z M128.574,261.9
	l-18.86,18.86l-18.448-18.448c5.37-3.77,11.903-5.993,18.949-5.993C117.004,256.319,123.319,258.378,128.574,261.9z"/>
<rect x="309.551" y="145.824" transform="matrix(-0.7071 -0.7071 0.7071 -0.7071 432.8377 485.9638)" style="fill:#FFFFFF;" width="15.029" height="15.029"/>
<g>
</g>
<g>
</g>
<g>
</g>
<g>
</g>
<g>
</g>
<g>
</g>
<g>
</g>
<g>
</g>
<g>
</g>
<g>
</g>
<g>
</g>
<g>
</g>
<g>
</g>
<g>
</g>
<g>
</g>
</svg>
