<?xml version="1.0" encoding="iso-8859-1"?>
<!-- Generator: Adobe Illustrator 19.0.0, SVG Export Plug-In . SVG Version: 6.00 Build 0)  -->
<svg version="1.1" id="Layer_1" xmlns="http://www.w3.org/2000/svg" xmlns:xlink="http://www.w3.org/1999/xlink" x="0px" y="0px"
	 viewBox="0 0 511.999 511.999" style="enable-background:new 0 0 511.999 511.999;" xml:space="preserve">
<g>
	<path style="fill:#8C6239;" d="M424.114,243.992h-90.283c-12.049,0-22.404,8.553-24.639,20.394
		C295.898,334.8,234.216,388.09,159.935,388.09c-83.114,0-150.657-66.664-152.079-149.439l0.074,31.816
		c-3.077,86.533,66.158,157.65,152.004,157.65c74.282,0,135.963-53.29,149.257-123.705c2.235-11.84,12.591-20.393,24.639-20.393
		h90.283c44.212,0,80.053-35.841,80.054-80.052c0-0.001,0-0.001,0-0.001v-0.001v-40.027
		C504.168,208.15,468.327,243.992,424.114,243.992z"/>
	<path style="fill:#8C6239;" d="M7.93,230.439c0.029-0.832,0.077-1.659,0.12-2.487l-0.219,0.028l0.015,6.193
		C7.859,232.932,7.885,231.688,7.93,230.439z"/>
</g>
<path style="fill:#C69C6D;" d="M424.114,83.883H163.58c-82.476,0-152.72,64.133-155.651,146.557
	c-3.077,86.533,66.158,157.65,152.004,157.65c74.282,0,135.963-53.29,149.257-123.705c2.235-11.84,12.591-20.394,24.639-20.394
	h90.283c44.212,0,80.054-35.842,80.054-80.054l0,0C504.168,119.724,468.327,83.883,424.114,83.883z"/>
<g>
	<path style="fill:#603813;" d="M8.049,227.972l-0.067,0.008l0.001,1.358C8.002,228.883,8.025,228.428,8.049,227.972z"/>
	<path style="fill:#603813;" d="M504.167,163.976c-0.002,3.534-0.256,7.007-0.702,10.42l1.005-0.129v-10.33L504.167,163.976z"/>
	<path style="fill:#603813;" d="M7.99,242.908l0.015,27.558c-3.077,86.533,66.121,157.651,151.967,157.651
		c13.982,0,27.497-1.894,40.346-5.43c-24.771-6.691-47.048-19.459-65.113-36.608C65.18,374.629,11.236,315.37,7.99,242.908z"/>
	<path style="fill:#603813;" d="M290.204,123.91h25.932c13.737,0,23.438,13.458,19.094,26.49l-11.005,33.014
		c-2.497,7.491-9.508,12.544-17.404,12.544l0,0c-6.662,0-12.801-3.612-16.036-9.436l-18.174-32.713
		C265.158,140.395,274.859,123.91,290.204,123.91z"/>
</g>
<path style="fill:#806042;" d="M316.135,123.934h-16.234c13.737,0,23.438,13.447,19.094,26.479l-11.005,33.009
	c-1.567,4.701-4.914,8.436-9.14,10.571c2.46,1.197,5.14,1.969,7.971,1.969c7.897,0,14.906-5.054,17.404-12.545l11.005-33.003
	C339.573,137.38,329.873,123.934,316.135,123.934z"/>
<g>
	<path style="fill:#A67C52;" d="M277.169,264.386c-12.34,65.369-66.406,115.905-133.517,122.823
		c5.352,0.57,10.779,0.881,16.281,0.881c74.282,0,135.963-53.289,149.257-123.704c2.235-11.84,12.591-20.392,24.639-20.392h-32.022
		C289.76,243.994,279.404,252.546,277.169,264.386z"/>
	<path style="fill:#A67C52;" d="M424.114,84.262h-32.022c44.212,0,80.055,35.653,80.055,79.866
		c0,44.212-35.842,79.866-80.055,79.866h32.022c44.212,0,80.055-35.654,80.055-79.866
		C504.168,119.914,468.327,84.262,424.114,84.262z"/>
</g>
<g>
	<circle style="fill:#806042;" cx="400.102" cy="163.94" r="40.027"/>
	<circle style="fill:#806042;" cx="159.93" cy="235.986" r="112.074"/>
</g>
<circle style="fill:#FFFFFF;" cx="400.102" cy="163.94" r="16.011"/>
<path style="fill:#603813;" d="M111.902,235.986c0-50.762,33.771-93.588,80.055-107.373c-10.153-3.024-20.886-4.703-32.022-4.703
	c-61.898,0-112.077,50.178-112.077,112.077s50.178,112.077,112.077,112.077c11.135,0,21.869-1.679,32.022-4.703
	C145.672,329.575,111.902,286.749,111.902,235.986z"/>
<path d="M400.098,211.795c-26.388,0-47.858-21.469-47.858-47.857s21.469-47.857,47.858-47.857s47.857,21.469,47.857,47.857
	S426.486,211.795,400.098,211.795z M400.098,131.74c-17.754,0-32.198,14.444-32.198,32.197s14.444,32.197,32.198,32.197
	c17.753,0,32.197-14.444,32.197-32.197S417.851,131.74,400.098,131.74z"/>
<rect x="111.927" y="187.618" width="24.012" height="15.66"/>
<rect x="87.915" y="228.334" width="72.036" height="15.66"/>
<rect x="159.951" y="260.698" width="24.012" height="15.66"/>
<rect x="175.611" y="156.298" width="24.012" height="15.66"/>
<rect x="135.939" y="139.594" width="24.012" height="15.66"/>
<rect x="103.575" y="300.37" width="40.716" height="15.66"/>
<rect x="144.291" y="316.03" width="31.32" height="15.66"/>
<path d="M159.934,116.08c-66.117,0-119.907,53.79-119.907,119.907s53.789,119.907,119.907,119.907s119.907-53.79,119.907-119.907
	S226.051,116.08,159.934,116.08z M159.934,340.233c-43.175,0-80.301-26.384-96.11-63.875h56.454v-15.66H58.654
	c-1.935-7.925-2.967-16.2-2.967-24.712c0-17.447,4.315-33.904,11.924-48.369h44.316v-15.66H77.725
	c19.094-24.461,48.845-40.218,82.208-40.218c37.022,0,69.594,19.403,88.094,48.57h-24.393v15.66h32.553
	c5.145,12.329,7.992,25.845,7.992,40.017c0,20.714-6.074,40.035-16.533,56.279v-0.247h-48.024v15.66h35.921
	C216.535,327.716,189.669,340.233,159.934,340.233z"/>
<rect x="207.975" y="228.334" width="15.66" height="15.66"/>
<rect x="223.635" y="252.346" width="16.704" height="15.66"/>
<path d="M400.098,187.778c-13.147,0-23.842-10.695-23.842-23.841s10.695-23.841,23.842-23.841c13.146,0,23.841,10.695,23.841,23.841
	S413.244,187.778,400.098,187.778z M400.098,155.757c-4.511,0-8.182,3.67-8.182,8.181s3.671,8.181,8.182,8.181
	c4.51,0,8.181-3.67,8.181-8.181S404.608,155.757,400.098,155.757z"/>
<path d="M338.815,127.69c-5.318-7.379-13.585-11.61-22.68-11.61h-25.931c-10.011,0-19.019,5.151-24.096,13.78
	c-5.076,8.628-5.204,19.003-0.343,27.754l18.174,32.713c4.613,8.305,13.381,13.463,22.881,13.463
	c11.285,0,21.263-7.193,24.832-17.898l11.005-33.015C345.533,144.249,344.133,135.069,338.815,127.69z M327.801,147.925
	l-5.227,15.682h-18.551v15.66h13.331l-0.557,1.674c-1.433,4.3-5.442,7.19-9.975,7.19c-3.816,0-7.338-2.072-9.191-5.409
	l-15.26-27.467h13.302v-15.66h-16.918c0.239-0.611,0.513-1.213,0.854-1.793c2.233-3.795,6.195-6.061,10.598-6.061h25.931
	c4.001,0,7.636,1.861,9.976,5.107C328.45,140.092,329.066,144.13,327.801,147.925z"/>
<path d="M424.114,76.053H163.58c-42.118,0-82.246,15.795-112.995,44.473c-30.532,28.476-48.36,66.571-50.376,107.473H0L0.1,270.34
	c-1.518,43.804,14.369,85.252,44.741,116.723c30.422,31.523,71.296,48.883,115.094,48.883c76.713,0,142.721-54.708,156.952-130.083
	c1.533-8.121,8.659-14.016,16.944-14.016h90.284c48.458,0,87.884-39.425,87.885-87.885v-40.027
	C511.999,115.477,472.574,76.053,424.114,76.053z M183.964,418.275v-6.197h-15.66v7.963c-2.773,0.161-5.562,0.247-8.37,0.247
	c-39.509,0-76.382-15.661-103.826-44.099c-16.762-17.369-28.623-38.112-34.999-60.648c6.499,11.287,14.432,21.86,23.731,31.495
	c10.444,10.822,22.12,19.974,34.723,27.329v13.701h15.66v-5.711c20.087,8.888,42.003,13.565,64.71,13.565
	c58.482,0,110.736-31.797,138.579-80.304C283.291,369.253,238.33,409.09,183.964,418.275z M424.114,276.19h-15.69v-16.536h-15.66
	v16.535h-58.933c-8.173,0-15.752,3.016-21.574,8.068c1.885-5.984,3.442-12.127,4.63-18.419c1.533-8.121,8.659-14.016,16.944-14.016
	h90.284c2.806,0,5.582-0.135,8.322-0.394v8.226h15.66V248.49c19.309-5.49,35.926-17.438,47.374-33.343
	C490.078,249.68,460.135,276.19,424.114,276.19z M424.114,236.162H333.83c-15.807,0-29.405,11.26-32.334,26.771
	c-12.835,67.984-72.37,117.327-141.563,117.327c-39.509,0-76.382-15.661-103.826-44.099c-25.621-26.548-39.809-60.971-40.424-97.644
	l-0.01-4.373c0.015-1.14,0.039-2.282,0.079-3.426c1.335-37.545,17.499-72.612,45.512-98.741
	c27.839-25.965,64.176-40.265,102.314-40.265h260.536c39.824,0,72.225,32.4,72.225,72.225S463.939,236.162,424.114,236.162z"/>
<g>
</g>
<g>
</g>
<g>
</g>
<g>
</g>
<g>
</g>
<g>
</g>
<g>
</g>
<g>
</g>
<g>
</g>
<g>
</g>
<g>
</g>
<g>
</g>
<g>
</g>
<g>
</g>
<g>
</g>
</svg>
